<svg width="25" height="25" viewBox="0 0 25 25" fill="none" xmlns="http://www.w3.org/2000/svg">
<circle cx="12.5" cy="12.5" r="12.5" fill="#334155"/>
<path d="M4.292 19V6.59H6.417V11.605H7.896L10.225 6.59H12.537L9.766 12.54L12.673 19H10.31L7.862 13.543H6.417V19H4.292ZM12.8534 19V6.59H16.5424C17.381 6.59 18.1064 6.74867 18.7184 7.066C19.3417 7.38333 19.8234 7.831 20.1634 8.409C20.5034 8.987 20.6734 9.67267 20.6734 10.466V15.107C20.6734 15.889 20.5034 16.5747 20.1634 17.164C19.8234 17.742 19.3417 18.1953 18.7184 18.524C18.1064 18.8413 17.381 19 16.5424 19H12.8534ZM14.9784 17.045H16.5424C17.1544 17.045 17.6417 16.875 18.0044 16.535C18.367 16.1837 18.5484 15.7077 18.5484 15.107V10.466C18.5484 9.87667 18.367 9.412 18.0044 9.072C17.6417 8.72067 17.1544 8.545 16.5424 8.545H14.9784V17.045Z" fill="#F1F5F9"/>
</svg>
